<svg id="Layer_1" data-name="Layer 1" xmlns="http://www.w3.org/2000/svg" viewBox="0 0 800 800"><defs><style>.cls-1{fill:#ffb600;}</style></defs><path d="M55.66,518.11v-276h46.19v276Z"/><path class="cls-1" d="M109.27,518.11v-276h41.59l95.43,195.47,95.44-195.47h41.58v276H340.19V341.23l-84.7,176.88h-18.4L152.58,341.23V518.11Z"/><path d="M445.88,309.42q0,10.15,6.13,16.57a43.53,43.53,0,0,0,15.24,10.16,149.38,149.38,0,0,0,18.49,6.23l49.44,13.8q10.16,2.69,22.81,7.28a103.5,103.5,0,0,1,24.33,12.84A65.28,65.28,0,0,1,601.58,398q7.57,13.43,7.57,34.11,0,21.46-8.91,37.66a79.63,79.63,0,0,1-24,26.92,109.34,109.34,0,0,1-34.59,16.1,152.34,152.34,0,0,1-40.72,5.37q-30.28,0-54.52-10.54a101.83,101.83,0,0,1-39.86-30.18q-15.63-19.65-19.84-46.67l47.91-7.28q6.14,24.54,25.2,37.94t44,13.42a82.8,82.8,0,0,0,27.79-4.6,51.65,51.65,0,0,0,21.18-13.42q8.13-8.8,8.14-21.65a28.87,28.87,0,0,0-1.92-10.64,25.84,25.84,0,0,0-5.65-8.71,39.56,39.56,0,0,0-9.58-7,71.44,71.44,0,0,0-13.51-5.46l-71.29-21.08a180.69,180.69,0,0,1-19.83-7.19A79.68,79.68,0,0,1,419,362.6a61.09,61.09,0,0,1-15.52-20.32q-6-12.36-6-30.56,0-26.64,13.51-44.75t36.41-27.12q22.89-9,50.88-8.81,28.35.19,50.59,9.68A96.86,96.86,0,0,1,586,268.22q15,18,21.08,43.5l-49.63,8.62a55,55,0,0,0-11.79-24.82,56.78,56.78,0,0,0-21.27-15.61,72.2,72.2,0,0,0-26.73-5.75A70.78,70.78,0,0,0,472,278.28a46,46,0,0,0-19,12.36,27.26,27.26,0,0,0-7.19,18.78"/><path d="M764,488.55q0,40.12-27.08,68.44a161.43,161.43,0,0,1-13.47,11.8q-11.19,8.85-14.42,8.85-2,0-9.56-9.44T691.88,556q0-1.63,5-7.82a72.32,72.32,0,0,0,9.29-13.87,49.51,49.51,0,0,0,5-22.12,47,47,0,0,0-.47-5.53,44.69,44.69,0,0,1-.47-5.39A9.16,9.16,0,0,1,712.5,495q1.61-1.77,22.36-7.38,20.07-5.31,23.71-5.31Q764,482.35,764,488.55Z"/><circle cx="695.31" cy="445.74" r="68.65"/><rect x="55.85" y="548.33" width="643.31" height="37.03"/><path d="M648.17,548.33s59.88.75,62.38-28.17,5.59,42.05,5.59,42.05Z"/><path d="M666.41,585.35h17.33c14,0,14.68,0,15.43,0C715,585,729.62,571.57,734.62,567c31.17-28.55,29.67-71.9,29.34-78.44-.57-11.39-2.94-32.55-8.55-33.07-7.59-.72-10.25,37.33-33.1,74.33C705.82,556.51,684.18,574,666.41,585.35Z"/><polygon points="763.96 445.74 764.07 489.98 754.7 461.94 763.96 445.74"/><circle class="cls-1" cx="695.31" cy="445.74" r="45.51"/></svg>